<svg width="35" height="33" viewBox="0 0 35 33" fill="none" xmlns="http://www.w3.org/2000/svg">
<ellipse cx="17.4911" cy="16.487" rx="17.4911" ry="16.487" fill="#005066"/>
<path d="M26.2508 10.2224C25.7545 9.75439 25.1652 9.38311 24.5166 9.12979C23.868 8.87648 23.1728 8.74609 22.4708 8.74609C21.7687 8.74609 21.0735 8.87648 20.4249 9.12979C19.7764 9.38311 19.1871 9.75439 18.6908 10.2224L17.6607 11.1933L16.6307 10.2224C15.6282 9.27746 14.2684 8.74658 12.8507 8.74658C11.4329 8.74658 10.0731 9.27746 9.07062 10.2224C8.0681 11.1674 7.50488 12.4491 7.50488 13.7855C7.50488 15.1218 8.0681 16.4035 9.07062 17.3485L17.6607 25.4454L26.2508 17.3485C26.7474 16.8807 27.1413 16.3252 27.41 15.7138C27.6787 15.1025 27.8171 14.4472 27.8171 13.7855C27.8171 13.1237 27.6787 12.4684 27.41 11.8571C27.1413 11.2457 26.7474 10.6903 26.2508 10.2224Z" stroke="white" stroke-width="4" stroke-linecap="round" stroke-linejoin="round"/>
</svg>
