<svg width="27" height="27" viewBox="0 0 27 27" fill="none" xmlns="http://www.w3.org/2000/svg">
<path d="M8.1387 12.6786L12.57 3.00464C13.4514 3.00464 14.2967 3.34438 14.92 3.94912C15.5433 4.55386 15.8934 5.37406 15.8934 6.22929V10.5288H22.1637C22.4848 10.5253 22.803 10.5896 23.096 10.7172C23.389 10.8448 23.6499 11.0327 23.8607 11.2678C24.0715 11.503 24.227 11.7798 24.3165 12.0791C24.4061 12.3783 24.4275 12.6929 24.3793 13.001L22.8505 22.675C22.7704 23.1876 22.502 23.6549 22.0949 23.9907C21.6877 24.3264 21.1692 24.5082 20.6349 24.5023H8.1387M8.1387 12.6786V24.5023M8.1387 12.6786H4.81525C4.22762 12.6786 3.66407 12.9051 3.24855 13.3082C2.83304 13.7114 2.59961 14.2582 2.59961 14.8283V22.3525C2.59961 22.9227 2.83304 23.4695 3.24855 23.8726C3.66407 24.2758 4.22762 24.5023 4.81525 24.5023H8.1387" stroke="#1E1E1E" stroke-width="2.71549" stroke-linecap="round" stroke-linejoin="round"/>
</svg>
