<svg width="34" height="35" viewBox="0 0 34 35" fill="none" xmlns="http://www.w3.org/2000/svg">
<path d="M16.8395 31.4857C16.512 31.4857 16.2314 31.3922 15.9975 31.2051C15.7636 31.018 15.5882 30.7724 15.4713 30.4684C15.0269 29.1587 14.4656 27.9308 13.7874 26.7848C13.1325 25.6388 12.2087 24.294 11.0159 22.7504C9.82314 21.2068 8.85254 19.7334 8.10413 18.3301C7.37911 16.9269 7.0166 15.2312 7.0166 13.2433C7.0166 10.5069 7.96381 8.19152 9.85822 6.29711C11.776 4.37931 14.1031 3.42041 16.8395 3.42041C19.5758 3.42041 21.8912 4.37931 23.7856 6.29711C25.7034 8.19152 26.6623 10.5069 26.6623 13.2433C26.6623 15.3716 26.253 17.149 25.4345 18.5757C24.6393 19.979 23.7155 21.3705 22.663 22.7504C21.4001 24.4343 20.4412 25.8376 19.7863 26.9602C19.1549 28.0594 18.6286 29.2288 18.2077 30.4684C18.0907 30.7958 17.9036 31.0531 17.6463 31.2402C17.4125 31.4039 17.1435 31.4857 16.8395 31.4857ZM16.8395 26.4691C17.2371 25.6739 17.6814 24.8904 18.1726 24.1186C18.6871 23.3468 19.4355 22.3177 20.4178 21.0314C21.4235 19.7217 22.242 18.5172 22.8735 17.418C23.5284 16.2954 23.8558 14.9038 23.8558 13.2433C23.8558 11.3021 23.1659 9.65325 21.786 8.29676C20.4295 6.91688 18.7807 6.22694 16.8395 6.22694C14.8983 6.22694 13.2378 6.91688 11.8579 8.29676C10.5014 9.65325 9.82314 11.3021 9.82314 13.2433C9.82314 14.9038 10.1389 16.2954 10.7703 17.418C11.4252 18.5172 12.2555 19.7217 13.2611 21.0314C14.2434 22.3177 14.9801 23.3468 15.4713 24.1186C15.9858 24.8904 16.4419 25.6739 16.8395 26.4691ZM16.8395 16.7514C17.8218 16.7514 18.652 16.4123 19.3303 15.7341C20.0085 15.0558 20.3476 14.2256 20.3476 13.2433C20.3476 12.261 20.0085 11.4307 19.3303 10.7525C18.652 10.0742 17.8218 9.73511 16.8395 9.73511C15.8572 9.73511 15.0269 10.0742 14.3487 10.7525C13.6704 11.4307 13.3313 12.261 13.3313 13.2433C13.3313 14.2256 13.6704 15.0558 14.3487 15.7341C15.0269 16.4123 15.8572 16.7514 16.8395 16.7514Z" fill="#1F1F1F"/>
</svg>
