<svg width="44" height="44" viewBox="0 0 44 44" fill="none" xmlns="http://www.w3.org/2000/svg">
<path d="M7.33366 36.6663C6.32533 36.6663 5.46213 36.3073 4.74408 35.5893C4.02602 34.8712 3.66699 34.008 3.66699 32.9997V10.9997C3.66699 9.99134 4.02602 9.12815 4.74408 8.41009C5.46213 7.69204 6.32533 7.33301 7.33366 7.33301H36.667C37.6753 7.33301 38.5385 7.69204 39.2566 8.41009C39.9746 9.12815 40.3337 9.99134 40.3337 10.9997V32.9997C40.3337 34.008 39.9746 34.8712 39.2566 35.5893C38.5385 36.3073 37.6753 36.6663 36.667 36.6663H7.33366ZM22.0003 23.833L7.33366 14.6663V32.9997H36.667V14.6663L22.0003 23.833ZM22.0003 20.1663L36.667 10.9997H7.33366L22.0003 20.1663ZM7.33366 14.6663V10.9997V32.9997V14.6663Z" fill="#00303D"/>
</svg>
